<?xml version="1.0" encoding="UTF-8"?>
<svg width="987px" height="258px" viewBox="0 0 987 258" version="1.1" xmlns="http://www.w3.org/2000/svg" xmlns:xlink="http://www.w3.org/1999/xlink">
    <!-- Generator: Sketch 41.2 (35397) - http://www.bohemiancoding.com/sketch -->
    <title>Group 2</title>
    <desc>Created with Sketch.</desc>
    <defs>
        <rect id="path-1" x="0" y="0" width="987" height="258"></rect>
    </defs>
    <g id="Page-1" stroke="none" stroke-width="1" fill="none" fill-rule="evenodd">
        <g id="Group-2">
            <mask id="mask-2" fill="white">
                <use xlink:href="#path-1"></use>
            </mask>
            <use id="Mask" fill="#00AF91" opacity="0.200000003" xlink:href="#path-1"></use>
            <g opacity="0.300000012" mask="url(#mask-2)" fill="#FEFEFE">
                <g transform="translate(889.000000, 134.500000) rotate(30.000000) translate(-889.000000, -134.500000) translate(765.000000, 21.000000)">
                    <path d="M217.498718,152.25986 C206.339024,152.25986 197.259429,161.339837 197.259429,172.5 C197.259429,183.660163 206.339024,192.74014 217.498718,192.74014 C228.660976,192.74014 237.740571,183.660163 237.740571,172.5 C237.740571,161.339837 228.660976,152.25986 217.498718,152.25986 M217.498718,203 C200.680949,203 187,189.318476 187,172.5 C187,155.681524 200.680949,142 217.498718,142 C234.316487,142 248,155.681524 248,172.5 C248,189.318476 234.316487,203 217.498718,203" id="Fill-1"></path>
                    <path d="M217.49875,170.996051 C217.22114,170.996051 216.996051,171.22114 216.996051,171.50125 C216.996051,172.05647 218.003949,172.05647 218.003949,171.50125 C218.003949,171.22114 217.776359,170.996051 217.49875,170.996051 M217.49875,181 C212.261682,181 208,176.738318 208,171.50125 C208,166.261682 212.261682,162 217.49875,162 C222.738318,162 227,166.261682 227,171.50125 C227,176.738318 222.738318,181 217.49875,181" id="Fill-3"></path>
                    <path d="M195.280755,227 C181.09922,227 169.56151,215.297318 169.56151,200.913008 L169.56151,198.361914 C169.56151,187.419736 160.785129,178.520703 150,178.520703 C139.214871,178.520703 130.43849,187.419736 130.43849,198.361914 L130.43849,200.913008 C130.43849,215.297318 118.90078,227 104.719245,227 C90.5377098,227 79,215.297318 79,200.913008 L79,139.675404 C79,136.539743 81.5039404,134 84.5953976,134 C87.6840571,134 90.1907952,136.539743 90.1907952,139.675404 L90.1907952,200.913008 C90.1907952,209.037348 96.7094334,215.649193 104.719245,215.649193 C112.729057,215.649193 119.247695,209.037348 119.247695,200.913008 L119.247695,198.361914 C119.247695,181.162603 133.043148,167.169896 150,167.169896 C166.956852,167.169896 180.752305,181.162603 180.752305,198.361914 L180.752305,200.913008 C180.752305,209.037348 187.270943,215.649193 195.280755,215.649193 C203.290567,215.649193 209.809205,209.037348 209.809205,200.913008 C209.809205,197.777347 212.315943,195.237604 215.404602,195.237604 C218.49606,195.237604 221,197.777347 221,200.913008 C221,215.297318 209.46229,227 195.280755,227" id="Fill-5"></path>
                    <path d="M84.5,150 L12.737684,77.3798031 C4.52392488,69.0678528 2.13162821e-13,57.9766746 2.13162821e-13,46.1495157 C2.13162821e-13,34.3197834 4.52392488,23.2286052 12.737684,14.9166549 C20.951443,6.60470466 31.9115983,2.02927198 43.601583,2.02927198 C55.2915676,2.02927198 66.2491799,6.60470466 74.462939,14.9166549 C76.4489903,16.9290218 76.4489903,20.1868946 74.462939,22.1966881 C72.4743447,24.2039083 69.257501,24.2064817 67.2714496,22.1941148 C60.977625,15.8276241 52.5731439,12.3227088 43.601583,12.3227088 C34.630022,12.3227088 26.222998,15.8276241 19.9291733,22.1941148 C13.6378916,28.5631788 10.1718379,37.0707044 10.1718379,46.1495157 C10.1718379,55.2257536 13.6378916,63.7332792 19.9291733,70.1023432 L84.5,135.442507 L149.070827,70.1023432 C155.362108,63.7332792 158.828162,55.2257536 158.828162,46.1495157 C158.828162,37.0707044 155.362108,28.5631788 149.070827,22.1941148 C136.020359,8.99278201 114.784104,8.98763529 101.72855,22.1941148 C99.742499,24.2064817 96.5256553,24.2064817 94.537061,22.1941148 C92.5510097,20.1868946 92.5510097,16.9264485 94.537061,14.9166549 C111.557089,-2.30683829 139.244831,-2.30426493 156.262316,14.9166549 C164.476075,23.2286052 169,34.3197834 169,46.1495157 C169,57.9766746 164.476075,69.0678528 156.262316,77.3798031 L84.5,150 Z" id="Fill-7"></path>
                    <path d="M34.984028,71 C33.6997787,71 32.4180376,70.4968896 31.4372925,69.4880888 C20.1875692,57.9165496 20.1875692,39.0847404 31.4372925,27.5132013 C33.3962744,25.4955996 36.5717816,25.4955996 38.5307636,27.5132013 C40.4897455,29.5256429 40.4897455,32.7945704 38.5307636,34.8095921 C31.1914792,42.3588281 31.1914792,54.6424619 38.5307636,62.191698 C40.4897455,64.2067196 40.4897455,67.4730671 38.5307636,69.4880888 C37.5500184,70.4968896 36.2682774,71 34.984028,71" id="Fill-9"></path>
                    <path d="M71.5012611,32 C66.262578,32 62,27.5850351 62,22.1558569 L62,9.84414311 C62,4.41496488 66.262578,-3.41060513e-13 71.5012611,-3.41060513e-13 C76.737422,-3.41060513e-13 81,4.41496488 81,9.84414311 L81,22.1558569 C81,27.5850351 76.737422,32 71.5012611,32" id="Fill-11"></path>
                    <path d="M97.5,32 C92.2620122,32 88,27.5850351 88,22.1558569 L88,9.84414311 C88,4.41496488 92.2620122,-1.70530257e-13 97.5,-1.70530257e-13 C102.737988,-1.70530257e-13 107,4.41496488 107,9.84414311 L107,22.1558569 C107,27.5850351 102.737988,32 97.5,32" id="Fill-13"></path>
                </g>
            </g>
        </g>
    </g>
</svg>