<?xml version="1.0" encoding="UTF-8"?>
<svg width="59px" height="58px" viewBox="0 0 59 58" version="1.1" xmlns="http://www.w3.org/2000/svg" xmlns:xlink="http://www.w3.org/1999/xlink">
    <!-- Generator: Sketch 45.2 (43514) - http://www.bohemiancoding.com/sketch -->
    <title>Placeholder Image - Men</title>
    <desc>Created with Sketch.</desc>
    <defs></defs>
    <g id="Page-1" stroke="none" stroke-width="1" fill="none" fill-rule="evenodd">
        <g id="Placeholder-Image---Men" transform="translate(0.000000, 0.191406)">
            <ellipse id="Oval" fill="#FFFFFF" cx="29.4511719" cy="28.9042969" rx="29.4511719" ry="28.9042969"></ellipse>
            <g id="Group-493" opacity="0.49556903" transform="translate(13.089410, 12.846354)" stroke="#10A3E8" stroke-linecap="round" stroke-linejoin="round">
                <path d="M25.6334274,9.09950087 C25.6334274,4.29603494 21.8015027,0.535264757 16.9071542,0.535264757 C10.7376791,0.535264757 7.09009693,4.29603494 7.09009693,9.09950087 C7.09009693,9.74181858 6.9548397,10.6378518 7.09009693,11.2405599 C6.94502264,11.6655601 7.09009693,12.1751322 7.09009693,12.7243138 C7.09009693,14.2027151 7.70093605,15.4006376 8.45357711,15.4006376 C8.59537905,15.4006376 8.72845472,15.3471111 8.85716725,15.2678919 C9.85850709,19.2331332 13.0610493,21.945855 16.3617622,21.945855 C19.662475,21.945855 22.8650172,18.953725 23.8663571,14.9884837 C23.9950696,15.0666324 24.1281453,15.1212294 24.2699472,15.1212294 C25.0225883,15.1212294 25.6334274,13.9233069 25.6334274,12.4449056 C25.6334274,11.895724 25.7785017,11.1302954 25.6334274,10.7052951 C25.7686846,10.102587 25.6334274,9.74181858 25.6334274,9.09950087 L25.6334274,9.09950087 Z" id="Stroke-483"></path>
                <path d="M14.5833097,12.7819076 C14.5833097,12.7819076 15.4555722,12.2448526 16.2249581,12.2448526 C16.994344,12.2448526 17.8666065,12.7819076 17.8666065,12.7819076" id="Stroke-980"></path>
                <path d="M11.300013,12.2448526 L9.24795252,11.1707428" id="Stroke-984"></path>
                <path d="M21.1499033,12.2448526 L23.3387678,11.1707428" id="Stroke-986"></path>
                <path d="M21.1499033,12.7819076 C21.1499033,13.6712706 20.4144448,14.3930724 19.5082549,14.3930724 C18.602065,14.3930724 17.8666065,13.6712706 17.8666065,12.7819076 C17.8666065,11.8925446 18.602065,11.1707428 19.5082549,11.1707428 C20.4144448,11.1707428 21.1499033,11.8925446 21.1499033,12.7819076 L21.1499033,12.7819076 Z" id="Stroke-988"></path>
                <path d="M14.5833097,12.7819076 C14.5833097,13.6712706 13.8478513,14.3930724 12.9416614,14.3930724 C12.0354715,14.3930724 11.300013,13.6712706 11.300013,12.7819076 C11.300013,11.8925446 12.0354715,11.1707428 12.9416614,11.1707428 C13.8478513,11.1707428 14.5833097,11.8925446 14.5833097,12.7819076 L14.5833097,12.7819076 Z" id="Stroke-990"></path>
                <path d="M7.635489,11.2405599 L9.27166522,11.2405599 C9.27166522,11.2405599 9.3829252,6.95844184 10.3624494,6.95844184 C11.3419735,6.95844184 14.7255859,7.61895855 14.7255859,4.81738281 C14.7255859,6.03029275 18.1855532,8.02897135 22.3610749,8.02897135 C22.3610749,9.20013064 23.4518591,11.2405599 23.4518591,11.2405599 L25.0880353,11.2405599" id="Stroke-485"></path>
                <path d="M12.5440177,9.77439991 L13.6348018,9.77439991" id="Stroke-487"></path>
                <path d="M19.0887225,9.77439991 L20.1795067,9.77439991" id="Stroke-489"></path>
                <path d="M32.1781322,31.5959292 L31.1189808,27.4379926 C30.925912,26.6789872 30.4045172,26.0420221 29.693326,25.6930295 L22.3610749,21.9461762 L18.5433304,31.5809418 L16.9071542,28.3693533 C16.9071542,28.3693533 17.9979384,27.2313804 17.9979384,26.2282942 C17.9979384,25.2241376 17.3838269,24.0872352 16.3617622,24.0872352 C15.3386066,24.0872352 14.7255859,25.2241376 14.7255859,26.2282942 C14.7255859,27.2313804 15.8163701,28.3693533 15.8163701,28.3693533 L14.1801939,31.5809418 L10.0897533,21.9461762 L3.03019835,25.4104097 C2.31900709,25.7594023 1.79761227,26.3963674 1.60454348,27.1543023 L0.545392072,31.5809418 L32.1781322,31.5959292 L32.1781322,31.5959292 Z" id="Stroke-491"></path>
            </g>
        </g>
    </g>
</svg>